# xmcd
#
# Track frame offsets:
#	150
#	21347
#	49330
#	69992
#	89480
#	109317
#	127478
#	147027
#	163857
#	189235
#	208909
#	228737
#	243782
#	264943
#	287937
#	309151
#
# Disc length: 4369 seconds
#
# Revision: 0
# Processed by: cddbd v1.5.2PL0 Copyright (c) Steve Scherf et al.
# Submitted via: audiograbber 1.82.01
#
DISCID=f1110f10
DTITLE=Various Artist - Золотые Баллады 7
DYEAR=1900
DGENRE=
TTITLE0=Rednex - Hold Me For A While
TTITLE1=Jennifer Lopez - Shouid've Never
TTITLE2=Craig David - Rendezvous
TTITLE3=Kylie Minogue - Ocean Blue
TTITLE4=Christina Aguilera - When Your Eyes Say It
TTITLE5=Britney Spears - When Your Eyes Say It
TTITLE6=Lara Fabian - Adagio
TTITLE7=Sonique - Learn To Forget
TTITLE8=Melanie C - Coser
TTITLE9=Madonna - I Deserve It
TTITLE10=Boyz II Men - What The Real
TTITLE11=Brian McKnight - Back At One
TTITLE12=N'Sync - This I Promise You
TTITLE13=Bon Jovi - Thank You For Loving Me
TTITLE14=Bryan Adams - Inside Out
TTITLE15=Vacuum - Icaros
EXTD=
EXTT0=
EXTT1=
EXTT2=
EXTT3=
EXTT4=
EXTT5=
EXTT6=
EXTT7=
EXTT8=
EXTT9=
EXTT10=
EXTT11=
EXTT12=
EXTT13=
EXTT14=
EXTT15=
PLAYORDER=
